<?xml version="1.0" encoding="UTF-8"?>
<svg version="1.1" xmlns="http://www.w3.org/2000/svg" width="512" height="512">
<path d="M0 0 C0.71542969 -0.03738281 1.43085938 -0.07476562 2.16796875 -0.11328125 C6.6483909 -0.18726987 9.63014217 0.58203174 13.00332332 3.59510612 C15.66901981 7.40095003 15.06000555 12.10000437 14.9984436 16.57250977 C15.00639242 17.71664872 15.01434123 18.86078768 15.02253091 20.03959751 C15.041816 23.8823692 15.01811942 27.72367534 14.99462891 31.56640625 C14.99616953 34.31764028 15.00668806 37.06882357 15.01675415 39.82003784 C15.03573282 46.52219193 15.02252876 53.22391542 14.99822827 59.92603755 C14.97098763 67.72973109 14.97426402 75.53332203 14.97849493 83.33705103 C14.98487508 97.26027089 14.96153742 111.18328613 14.92236328 125.10644531 C14.88435471 138.6188785 14.87018808 152.13107187 14.88134766 165.64355469 C14.89346172 180.35530179 14.89311195 195.06694341 14.87037599 209.77868176 C14.86796139 211.34723599 14.86554942 212.91579024 14.86314011 214.48434448 C14.86193303 215.25611686 14.86072595 216.02788923 14.8594823 216.82304865 C14.8517217 222.26348377 14.8525121 227.70387964 14.8563118 233.14431763 C14.86055493 239.77383507 14.85011383 246.40314241 14.82108469 253.03260064 C14.80659116 256.41561638 14.80058531 259.79806897 14.80757141 263.18114853 C14.81399407 266.84693705 14.79590607 270.5117972 14.77139282 274.17749023 C14.78273079 275.78472631 14.78273079 275.78472631 14.79429781 277.4244318 C14.7412978 281.88740123 14.69992287 284.60996132 12.40491295 288.51234436 C8.70126308 291.71369146 5.02652893 291.63387295 0.29296875 291.98828125 C-1.13311136 292.09997086 -2.55913477 292.21238621 -3.98510742 292.32543945 C-4.73214935 292.38398102 -5.47919128 292.44252258 -6.24887085 292.50283813 C-20.59719578 293.64804693 -34.69194884 295.17220004 -48.75 298.375 C-50.13372803 298.68993408 -50.13372803 298.68993408 -51.54541016 299.01123047 C-90.68582928 308.14775482 -127.54455592 325.32819981 -159.12109375 350.24609375 C-160.75 351.375 -160.75 351.375 -162.75 351.375 C-163.04766777 314.47379653 -163.27668148 277.57277414 -163.41384928 240.67061264 C-163.43010813 236.31230751 -163.44693436 231.95400473 -163.46411133 227.59570312 C-163.46752136 226.72805733 -163.4709314 225.86041154 -163.47444477 224.96647345 C-163.53098595 210.92433237 -163.63346958 196.88288438 -163.75298635 182.84115423 C-163.87463156 168.42897105 -163.94677951 154.01715039 -163.97315043 139.6044749 C-163.99097378 130.71325967 -164.04722232 121.8240034 -164.15291407 112.93339138 C-164.22172714 106.83357904 -164.24238145 100.73477667 -164.22551791 94.63460453 C-164.21720304 91.11616026 -164.22977554 87.60113306 -164.29967117 84.08329964 C-164.67702952 61.83479651 -164.67702952 61.83479651 -159.89439964 56.54171371 C-156.81693137 53.86751659 -153.44106899 52.09947331 -149.75 50.375 C-148.42297458 49.46752076 -147.11192849 48.53531966 -145.83203125 47.5625 C-103.32116554 19.12034373 -51.41157373 1.04148676 0 0 Z " fill="#439EFF" transform="translate(427.75,69.625)"/>
<path d="M0 0 C24.10269562 8.14357657 49.02425212 19.387725 69.16233349 35.2397089 C71.37699258 36.91379375 71.37699258 36.91379375 74.12225056 38.09591579 C77.72800961 40.16016694 80.39195357 42.15578244 82.375 45.8125 C84.42378388 54.07030442 83.79389812 62.93439627 83.65172184 71.37455761 C83.60402192 74.92657224 83.62030728 78.47837939 83.62864685 82.03062439 C83.63440277 88.17791654 83.60002183 94.32392013 83.53803062 100.47088814 C83.44846372 109.35803284 83.41996807 118.24455728 83.40616272 127.13210439 C83.38211374 141.55269652 83.30898152 155.9726025 83.20483398 170.39282227 C83.10379655 184.39701922 83.02596783 198.40102951 82.97924805 212.40551758 C82.97635809 213.26938178 82.97346813 214.13324599 82.9704906 215.0232879 C82.95613473 219.35723168 82.94223405 223.69117678 82.92855966 228.02512276 C82.81460672 263.95473288 82.62093421 299.88356292 82.375 335.8125 C78.38366005 334.2994892 75.53342802 332.54498297 72.1875 329.875 C29.74820904 297.17127035 -24.08676031 280.34389482 -77.02685547 276.83691406 C-78.9974292 276.69527832 -78.9974292 276.69527832 -81.0078125 276.55078125 C-82.74635498 276.44310425 -82.74635498 276.44310425 -84.52001953 276.33325195 C-87.91098625 275.7645358 -89.87624833 274.85266974 -92.625 272.8125 C-94.76363788 269.60454317 -94.87653902 268.78597596 -94.88506222 265.10007668 C-94.8956606 263.63794115 -94.8956606 263.63794115 -94.9064731 262.14626753 C-94.90405802 261.07284208 -94.90164293 259.99941663 -94.89915466 258.89346313 C-94.90700968 257.1859433 -94.90700968 257.1859433 -94.91502339 255.44392812 C-94.93008889 251.60923087 -94.93072998 247.77466628 -94.93139648 243.93994141 C-94.93792996 241.19887145 -94.94739088 238.45781312 -94.95661926 235.7167511 C-94.9794842 228.25608777 -94.98739135 220.79545285 -94.99244571 213.33475924 C-94.99570074 208.67776216 -95.00222201 204.02077337 -95.0094471 199.36378098 C-95.02901432 186.47382943 -95.04541803 173.58388559 -95.04832363 160.69391823 C-95.0485112 159.86881786 -95.04869877 159.0437175 -95.04889202 158.19361409 C-95.04925828 156.52088539 -95.04962198 154.84815669 -95.04998314 153.17542799 C-95.05016595 152.34506605 -95.05034876 151.51470411 -95.05053711 150.65917969 C-95.05071766 149.82780622 -95.05089821 148.99643276 -95.05108423 148.13986616 C-95.05462706 134.66388862 -95.08165565 121.18807076 -95.119035 107.71214862 C-95.15709101 93.88179915 -95.17648091 80.05152897 -95.17678314 66.22112596 C-95.1773683 58.45370981 -95.1858975 50.68648417 -95.21478081 42.91911697 C-95.23925852 36.30603417 -95.24660218 29.69321137 -95.23153328 23.08009554 C-95.2243493 19.70505429 -95.22798899 16.330946 -95.24794388 12.95589256 C-95.26825328 9.29864278 -95.25793985 5.64273504 -95.23973083 1.98550415 C-95.2529308 0.91654014 -95.26613077 -0.15242387 -95.27973074 -1.25378072 C-95.19764412 -8.44345038 -95.19764412 -8.44345038 -92.21157932 -12.32331276 C-73.36259352 -25.90806484 -20.08005937 -6.55031027 0 0 Z " fill="#5DB2FF" transform="translate(164.625,85.1875)"/>
<path d="M0 0 C4.82663662 5.25948447 4.56415603 10.26226495 4.50120544 17.15917969 C4.50950704 18.8511101 4.50950704 18.8511101 4.51797634 20.57722092 C4.53159578 24.35899601 4.51660573 28.14011264 4.50170898 31.921875 C4.50328438 34.63221348 4.5108387 37.34252798 4.51808167 40.05285645 C4.53201031 46.65151511 4.52446081 53.24998232 4.50940608 59.84863186 C4.49254021 67.53385608 4.49575698 75.21903269 4.49950016 82.9042697 C4.50537805 96.61720806 4.49120998 110.33005458 4.46655273 124.04296875 C4.44263216 137.34769127 4.43554856 150.65229109 4.44604492 163.95703125 C4.45745573 178.44683845 4.45938218 192.9365889 4.44494683 207.42639542 C4.443421 208.97164154 4.44190064 210.51688766 4.44038582 212.06213379 C4.439628 212.82241402 4.43887019 213.58269426 4.43808941 214.36601329 C4.43334784 219.72232961 4.43519712 225.07862059 4.43945122 230.43493652 C4.44437929 236.96298296 4.4383873 243.49091341 4.41855692 250.0189333 C4.40868907 253.34935401 4.40518398 256.67945073 4.41144943 260.00990295 C4.41739064 263.62039852 4.40491853 267.23037184 4.38768005 270.84082031 C4.39669512 272.41931826 4.39669512 272.41931826 4.40589231 274.02970505 C4.35908303 279.40761552 4.14346511 283.41209621 1 288 C-2.05706716 290.03804478 -2.8790045 290.27333846 -6.35913086 290.43896484 C-7.24508942 290.48613647 -8.13104797 290.53330811 -9.04385376 290.58190918 C-10.00778046 290.62448853 -10.97170715 290.66706787 -11.96484375 290.7109375 C-14.04794598 290.81990086 -16.13103463 290.92912399 -18.21411133 291.03857422 C-19.31091217 291.09301697 -20.40771301 291.14745972 -21.53775024 291.20355225 C-81.45758831 294.22528102 -139.78956411 303.71391203 -196.5 323.6875 C-197.47484848 324.02994247 -197.47484848 324.02994247 -198.46939087 324.37930298 C-205.78421235 326.96161445 -212.86826727 329.71888008 -219.81054688 333.19067383 C-222 334 -222 334 -225 333 C-173.93525848 284.28847237 -103.98892601 271 -36 271 C-36 181.57 -36 92.14 -36 0 C-30.13352213 -0.83806827 -24.46159743 -1.37304918 -18.5625 -1.6875 C-17.20801758 -1.77741211 -17.20801758 -1.77741211 -15.82617188 -1.86914062 C-10.12155791 -2.17068792 -5.36461791 -2.08397018 0 0 Z " fill="#2E8DFF" transform="translate(496,108)"/>
<path d="M0 0 C1.01126953 0.04833984 2.02253906 0.09667969 3.06445312 0.14648438 C8.3241914 0.41753416 13.32245048 0.9389215 18.5625 1.6875 C18.5625 91.1175 18.5625 180.5475 18.5625 272.6875 C28.4625 272.6875 38.3625 272.6875 48.5625 272.6875 C88.23444474 274.84785343 126.41414583 283.84948511 161.5625 302.6875 C162.27470703 303.06100586 162.98691406 303.43451172 163.72070312 303.81933594 C179.5487947 312.13496935 193.9744567 322.06576103 207.5625 333.6875 C207.2325 334.3475 206.9025 335.0075 206.5625 335.6875 C205.31436523 335.17533936 205.31436523 335.17533936 204.04101562 334.65283203 C141.03274481 308.94483745 74.20345824 294.38062293 6.06640625 292.453125 C4.83204834 292.41727295 3.59769043 292.3814209 2.32592773 292.34448242 C-0.04010935 292.28304135 -2.40656459 292.23556684 -4.77319336 292.2043457 C-5.83546143 292.17945068 -6.89772949 292.15455566 -7.9921875 292.12890625 C-8.92530762 292.11545166 -9.85842773 292.10199707 -10.81982422 292.08813477 C-14.89514183 291.4644082 -17.40872616 289.90596267 -20.05996799 286.76587582 C-22.14220079 282.11270257 -21.85390132 277.69146008 -21.82518005 272.64857483 C-21.83056559 271.52147565 -21.83595113 270.39437647 -21.84149987 269.23312277 C-21.85583168 265.44835493 -21.84866263 261.66393427 -21.84155273 257.87915039 C-21.84560933 255.16896149 -21.85411581 252.45879044 -21.86235046 249.74861145 C-21.87955026 243.14651425 -21.88037605 236.54451217 -21.87513756 229.94239838 C-21.87109684 224.57642611 -21.87253824 219.21048196 -21.87788582 213.84451103 C-21.87863424 213.08092112 -21.87938266 212.3173312 -21.88015376 211.5306022 C-21.88168523 209.97939225 -21.88322358 208.42818231 -21.88476873 206.87697237 C-21.89849803 192.32865216 -21.89305306 177.78038573 -21.88158352 163.23206674 C-21.87165051 149.92180656 -21.88459218 136.61168537 -21.90851771 123.30144662 C-21.9328987 109.63487491 -21.94251906 95.96836795 -21.93586498 82.30177492 C-21.93237055 74.62885174 -21.93461955 66.95603548 -21.95211601 59.28312874 C-21.96682551 52.75138385 -21.96748995 46.21982117 -21.9500451 39.6880799 C-21.94152207 36.35554917 -21.94157742 33.02361193 -21.95469666 29.6910553 C-21.96783527 26.07819688 -21.95642096 22.46622845 -21.93870544 18.85340881 C-21.94831045 17.80039473 -21.95791546 16.74738065 -21.96781152 15.66245705 C-21.90757536 9.70726934 -21.45449145 6.19958414 -17.4375 1.6875 C-12.03879491 -1.28220372 -5.95663371 -0.35172504 0 0 Z " fill="#63B7FF" transform="translate(33.4375,106.3125)"/>
</svg>
